<?xml version="1.0" encoding="UTF-8" standalone="no"?>
<svg
   xmlns:dc="http://purl.org/dc/elements/1.1/"
   xmlns:cc="http://creativecommons.org/ns#"
   xmlns:rdf="http://www.w3.org/1999/02/22-rdf-syntax-ns#"
   xmlns:svg="http://www.w3.org/2000/svg"
   xmlns="http://www.w3.org/2000/svg"
   xmlns:sodipodi="http://sodipodi.sourceforge.net/DTD/sodipodi-0.dtd"
   xmlns:inkscape="http://www.inkscape.org/namespaces/inkscape"
   width="48"
   height="48"
   id="svg2"
   version="1.1"
   inkscape:version="0.48.4 r9939"
   sodipodi:docname="seafile.svg">
  <metadata
     id="metadata22">
    <rdf:RDF>
      <cc:Work
         rdf:about="">
        <dc:format>image/svg+xml</dc:format>
        <dc:type
           rdf:resource="http://purl.org/dc/dcmitype/StillImage" />
        <dc:title></dc:title>
      </cc:Work>
    </rdf:RDF>
  </metadata>
  <defs
     id="defs20" />
  <sodipodi:namedview
     pagecolor="#ffffff"
     bordercolor="#666666"
     borderopacity="1"
     objecttolerance="10"
     gridtolerance="10"
     guidetolerance="10"
     inkscape:pageopacity="0"
     inkscape:pageshadow="2"
     inkscape:window-width="1920"
     inkscape:window-height="1017"
     id="namedview18"
     showgrid="false"
     inkscape:zoom="0.921875"
     inkscape:cx="127.99967"
     inkscape:cy="128.00022"
     inkscape:window-x="-8"
     inkscape:window-y="-8"
     inkscape:window-maximized="1"
     inkscape:current-layer="svg2"
     fit-margin-top="0"
     fit-margin-left="0"
     fit-margin-right="0"
     fit-margin-bottom="0" />
  <g
     transform="matrix(0.1875,0,0,0.1875,53.946373,-333.71082)"
     id="g4">
    <rect
       width="256"
       height="256"
       x="-287.71399"
       y="1779.791"
       rx="26.5"
       id="rect6"
       style="fill:#ee8833" />
    <path
       id="path8"
       d=""
       inkscape:connector-curvature="0" />
    <path
       id="path10"
       d=""
       inkscape:connector-curvature="0" />
    <path
       id="path12"
       d=""
       inkscape:connector-curvature="0" />
    <path
       id="path14"
       d=""
       inkscape:connector-curvature="0" />
    <path
       d="m -128.69933,1824.4562 c -0.87675,-0.01 -1.52147,0.013 -1.8203,0.055 -0.61875,0.087 -3.2211,0.2582 -5.78125,0.3828 -2.6791,0.1305 -5.8625,0.4536 -7.5,0.7579 -10.91205,2.0273 -24.99425,6.4544 -34.28905,10.7812 -2.0296,0.9448 -3.74312,1.7188 -3.8125,1.7188 -0.3594,0 -7.02677,3.4801 -10.7422,5.6093 -8.31036,4.7625 -14.25898,9.0352 -18.96876,13.625 -11.14957,10.8656 -16.18562,18.6095 -17.125,26.3282 -0.5054,4.1526 0.48818,6.7922 3.8047,10.0703 3.20018,3.1631 5.76613,4.3389 14.66405,6.7343 2.40435,0.6473 6.9625,1.9497 10.125,2.8907 3.16248,0.941 7.54999,2.171 9.75001,2.7422 2.2,0.5711 5.6875,1.542 7.75,2.1562 2.0625,0.6142 5.6625,1.4978 8,1.9609 5.59418,1.1086 8.52733,1.8427 9.71875,2.4375 0.53548,0.2674 2.24395,0.978 3.79688,1.5782 6.5425,2.5286 8.95962,4.199 11.32032,7.8203 2.40765,3.6934 2.6664,6.9974 0.91405,11.6562 -1.18577,3.1526 -1.79877,4.1267 -3.85937,6.1407 -0.91445,0.8937 -2.69965,2.7641 -3.96875,4.164 -1.38113,1.5235 -3.00718,3.012 -4.04688,3.7031 -1.53325,1.0193 -8.8606,4.5765 -16.8047,8.1485 -1.47335,0.6625 -4.6796,2.1493 -7.125,3.3125 -2.4454,1.1632 -5.51405,2.5295 -6.8203,3.0312 -6.28681,2.4149 -7.90926,3.0873 -11.62501,4.8282 -2.2,1.0307 -4.95625,2.297 -6.125,2.8125 -1.16875,0.5155 -2.8,1.2799 -3.625,1.6953 -0.825,0.4154 -3.4125,1.5578 -5.75,2.5468 -6.28855,2.661 -13.8773,6.4096 -14.83592,7.3282 -1.04818,1.0044 -1.78908,2.4294 -1.78908,3.4297 0,2.3655 2.80408,4.7846 6.79688,5.8593 2.38832,0.6429 4.07037,0.4894 9.50782,-0.875 14.0638,-3.5288 20.3439,-5.6503 31.94531,-10.8047 4.97963,-2.2124 20.86085,-10.2346 23.83595,-12.039 1.49388,-0.9061 5.09388,-2.9023 8,-4.4297 2.90615,-1.5274 6.86405,-3.6459 8.78905,-4.7109 9.2069,-5.0939 17.33588,-9.3524 19.3125,-10.1172 6.43908,-2.4915 16.67978,-7.4278 18.97655,-9.1485 2.8803,-2.1578 5.20825,-5.1334 5.82033,-7.4297 0.33745,-1.2659 0.0499,-2.5944 -0.74218,-3.4375 l -0.52345,-0.5546 -2.1797,0.8125 c -3.0263,1.1251 -4.78885,1.9093 -13.66405,6.0781 -4.2625,2.0022 -9.26875,4.456 -11.125,5.4531 -3.37335,1.812 -4.75,2.3631 -4.75,1.9063 0,-0.3362 1.5273,-2.2686 2.625,-3.3125 2.49248,-2.3705 5.20408,-9.3234 5.75,-14.75 0.20685,-2.0561 -0.19142,-4.9434 -1.03125,-7.4844 -1.1691,-3.5374 -3.68345,-5.7012 -9.10155,-7.8281 -11.8357,-4.6463 -15.6167,-5.8552 -22.82815,-7.3047 -1.76472,-0.3547 -3.846,-0.9108 -4.625,-1.2344 -0.77897,-0.3236 -1.97655,-0.6675 -2.66405,-0.7656 -0.6875,-0.098 -2.375,-0.4422 -3.75,-0.7657 -3.31635,-0.7801 -4.85057,-1.0138 -10.6328,-1.6171 -2.68055,-0.2797 -5.4297,-0.6232 -6.1172,-0.7579 -2.79092,-0.5466 -10.71123,-1.4921 -12.46876,-1.4921 -4.02235,0 -8.67807,-1.5743 -12.78125,-4.3125 -3.41377,-2.2782 -4.26017,-3.7617 -3.53905,-6.2422 0.71015,-2.443 2.50305,-4.6372 7.74218,-9.4922 5.8979,-5.4655 7.53007,-6.6973 19.54688,-14.7969 2.6575,-1.7912 5.939,-3.3423 13.375,-6.3125 1.30625,-0.5217 3.10625,-1.3633 4,-1.875 0.89375,-0.5117 2.35625,-1.2082 3.25,-1.5469 3.0915,-1.1713 11.12573,-3.6649 12.67188,-3.9297 0.85375,-0.1462 2.1475,-0.5369 2.875,-0.8671 2.05655,-0.9337 5.0086,-1.6081 8.82812,-2.0235 1.925,-0.2093 4.56875,-0.5709 5.875,-0.8047 1.988,-0.3557 3.923,-0.4194 11.875,-0.3906 12.47945,0.045 16.46223,0.4638 20.48438,2.1406 0.96777,0.4035 2.2826,0.895 2.92187,1.0938 2.49485,0.776 5.948104,3.747 8.156254,7.0156 1.412,2.0902 2.6594,4.5953 2.39845,4.8203 -0.11825,0.102 -0.687425,0.32 -1.26565,0.4844 -0.57815,0.1644 -1.413275,0.6 -1.85155,0.9687 -2.864175,2.4101 -1.9489,7.8244 1.609375,9.5469 1.459825,0.7067 2.81025,0.6618 4.3125,-0.1328 0.676425,-0.3578 1.628125,-0.8461 2.109375,-1.0937 1.310175,-0.6742 2.20985,-1.6236 2.8203,-2.9454 0.518275,-1.122 0.548275,-1.5149 0.539075,-7.4296 -0.01075,-6.9786 -0.253775,-8.7674 -1.71875,-12.6719 -1.011475,-2.6958 -2.07905,-4.494 -4.0625,-6.8281 -1.2973,-1.5267 -1.932275,-2.0186 -4,-3.1329 -1.35185,-0.7284 -3.757875,-2.0682 -5.34375,-2.9765 -1.585879,-0.9083 -3.802529,-2.0155 -4.929679,-2.461 -2.54805,-1.0068 -7.17225,-2.2186 -10.3047,-2.6953 -2.3076,-0.3511 -10.38042,-0.7783 -14.1797,-0.8047 z m -60.71875,145.4141 c 0.99215,-0.022 1.60583,0.094 1.4922,0.3906 -0.0765,0.1993 -1.11362,0.8606 -2.3047,1.4688 -1.1911,0.6082 -3.57031,1.8238 -5.28906,2.7031 -1.71875,0.8793 -3.9125,1.8436 -4.875,2.1406 -7.65255,2.3618 -14.86425,4.4114 -15.83595,4.5 l -1.16405,0.1016 0.8125,-0.7188 c 0.44848,-0.3974 1.79238,-1.094 2.98438,-1.5468 1.19202,-0.4528 4.81392,-2.1386 8.05467,-3.75 3.24075,-1.6115 6.66603,-3.2417 7.6094,-3.6172 2.29548,-0.9136 6.33294,-1.6244 8.51561,-1.6719 z"
       id="path16"
       inkscape:connector-curvature="0"
       style="fill:#ffffff" />
  </g>
</svg>
